<?xml version="1.0" standalone="no"?>
<!DOCTYPE svg PUBLIC "-//W3C//DTD SVG 20010904//EN"
 "http://www.w3.org/TR/2001/REC-SVG-20010904/DTD/svg10.dtd">
<svg version="1.0" xmlns="http://www.w3.org/2000/svg"
 width="397.000000pt" height="409.000000pt" viewBox="0 0 397.000000 409.000000"
 preserveAspectRatio="xMidYMid meet">

<g transform="translate(0.000000,409.000000) scale(0.100000,-0.100000)"
fill="#000000" stroke="none">
<path d="M270 2355 l0 -1635 505 0 505 0 0 398 0 398 258 271 c141 149 262
272 267 272 6 0 163 -297 349 -662 186 -364 342 -665 345 -670 4 -4 284 -6
623 -5 l617 3 -105 170 -104 169 0 1339 c0 891 4 1336 10 1332 6 -4 7 -12 4
-18 -4 -7 14 11 39 38 41 45 63 86 37 70 -6 -4 -8 -11 -5 -16 4 -5 -2 -6 -11
-2 -14 5 -16 3 -11 -11 5 -11 3 -15 -5 -10 -7 5 -8 3 -3 -7 7 -11 5 -11 -10 1
-17 14 -18 13 -13 -8 4 -12 2 -20 -3 -16 -5 3 -6 -3 -3 -13 6 -15 4 -15 -9 2
-9 11 -16 25 -17 30 0 6 4 4 9 -4 7 -11 11 -5 16 22 4 21 11 40 16 43 5 3 9 9
9 14 0 6 -9 2 -19 -7 -11 -9 -17 -22 -14 -28 2 -7 0 -15 -4 -18 -5 -3 -9 5 -8
18 0 17 24 49 75 100 l74 75 -669 0 -670 0 -530 -619 -530 -619 -3 619 -2 619
-505 0 -505 0 0 -1635z m2867 1036 c-1 -16 -5 -27 -9 -24 -5 2 -8 -3 -8 -12 0
-9 4 -14 9 -11 5 4 10 -112 10 -275 l2 -280 -266 2 c-164 1 -267 5 -271 11 -4
6 -10 5 -16 -3 -7 -11 -8 -9 -4 4 4 12 2 17 -6 14 -7 -2 -12 -9 -11 -14 1 -5
-8 -10 -19 -10 -15 -2 -5 14 43 65 120 126 543 562 545 562 2 0 2 -13 1 -29z
m3 -811 l0 -70 -247 0 -248 0 -29 48 c-17 26 -36 57 -44 70 l-14 22 291 0 291
0 0 -70z m0 -642 c0 -199 -2 -230 -14 -213 -27 39 -266 434 -266 439 0 3 63 6
140 6 l140 0 0 -232z"/>
<path d="M3088 3353 c-14 -16 -32 -39 -42 -53 -9 -14 -17 -23 -19 -21 -4 9
-117 -104 -117 -117 0 -7 5 -10 10 -7 6 4 8 11 4 16 -3 5 0 8 7 7 7 -2 13 3
14 10 0 6 4 12 9 11 5 0 13 5 17 13 5 8 7 -2 5 -25 -1 -21 2 -41 7 -44 5 -3 8
13 6 40 -2 25 0 43 5 40 5 -4 6 0 1 7 -6 9 -4 11 5 5 9 -6 11 -4 5 5 -6 9 -4
11 5 5 9 -6 11 -4 5 5 -5 9 -4 11 3 6 8 -5 10 -1 6 11 -6 16 -4 15 10 -2 15
-17 17 -18 12 -2 -4 12 -2 16 6 11 8 -5 9 -2 5 10 -4 10 -3 15 3 11 6 -3 10 0
10 7 0 9 3 9 10 -2 10 -16 12 -10 12 30 -1 20 0 21 5 5 3 -11 10 -26 17 -34 9
-12 8 -13 -3 -6 -10 6 -12 4 -6 -5 5 -9 4 -11 -3 -6 -8 5 -10 2 -6 -8 5 -13 8
-13 19 -2 14 13 14 27 0 59 -4 9 -5 24 -1 32 8 21 3 19 -26 -12z"/>
<path d="M3070 3288 c0 -2 -7 -21 -15 -43 -11 -31 -14 -34 -15 -16 0 23 -1 24
-20 6 -13 -12 -20 -30 -19 -54 0 -25 3 -31 8 -18 4 10 11 19 16 20 6 1 8 8 7
16 -2 7 1 10 7 6 6 -3 14 1 17 9 3 9 10 13 15 10 5 -3 8 0 7 8 -2 7 2 12 8 11
13 -3 7 34 -7 43 -5 3 -9 4 -9 2z m1 -41 c-10 -9 -11 -8 -5 6 3 10 9 15 12 12
3 -3 0 -11 -7 -18z m-45 -41 c0 -14 -5 -21 -9 -17 -4 4 -5 15 -1 24 9 24 12
21 10 -7z"/>
<path d="M2953 3195 c4 -5 -3 -19 -15 -32 -18 -19 -19 -25 -8 -36 10 -10 12
-9 7 6 -5 12 -3 16 5 11 7 -5 8 -3 3 6 -5 9 -4 11 3 6 8 -5 8 -13 0 -31 -10
-23 -12 -23 -25 -7 -13 16 -14 16 -9 -3 3 -11 1 -27 -4 -35 -7 -11 -10 -11
-10 -2 0 7 -5 10 -10 7 -6 -4 -10 -12 -9 -18 4 -34 -1 -40 -16 -21 -14 18 -15
18 -11 -8 3 -17 0 -27 -7 -25 -6 1 -12 -7 -13 -18 -2 -15 -2 -16 2 -2 3 9 9
15 14 12 4 -3 21 10 36 27 15 18 31 32 35 31 5 -2 5 5 2 14 -4 10 -2 14 5 9 6
-3 13 3 17 14 3 11 12 19 18 17 7 -1 10 5 8 13 -2 8 -3 25 -3 37 1 12 -4 25
-11 29 -6 4 -9 3 -4 -1z"/>
<path d="M2861 3118 c-18 -21 -35 -52 -37 -69 -2 -17 -7 -36 -11 -42 -4 -7 -8
-19 -8 -27 0 -8 -6 -14 -14 -12 -9 2 -11 -3 -7 -13 4 -11 2 -14 -6 -9 -7 5 -8
3 -3 -6 6 -9 4 -11 -5 -5 -9 6 -11 4 -5 -5 5 -8 4 -11 -3 -6 -5 3 -12 3 -15
-1 -2 -5 -2 -3 -1 4 2 7 -4 19 -12 28 -14 13 -11 17 13 14 4 0 10 8 14 18 7
17 8 16 8 -2 1 -16 3 -17 11 -5 5 9 5 19 -1 27 -8 9 -5 11 11 8 18 -3 21 -1
17 15 -3 13 -1 18 5 13 7 -4 8 -1 4 6 -9 14 -21 6 -21 -12 0 -7 -4 -12 -10
-12 -16 -1 -165 -147 -159 -156 3 -5 -1 -9 -9 -9 -19 0 -31 -30 -17 -44 17
-17 42 -16 36 1 -3 8 -6 17 -6 19 0 2 -4 4 -10 4 -5 0 -7 -8 -4 -17 5 -15 4
-15 -4 -3 -13 18 -5 33 15 26 8 -3 12 -2 9 2 -2 4 3 16 11 27 12 16 14 16 10
3 -3 -10 -1 -20 5 -24 8 -5 9 2 5 23 -7 36 1 47 21 30 13 -10 15 -9 10 11 -4
12 -4 22 -2 22 3 0 9 -10 14 -22 9 -20 10 -19 7 9 -4 40 9 34 15 -6 3 -18 0
-28 -5 -24 -6 4 -7 1 -2 -8 7 -11 5 -11 -10 1 -17 14 -18 13 -13 -8 4 -12 2
-20 -3 -16 -5 3 -9 12 -9 20 0 8 -4 14 -9 14 -6 0 -6 -12 0 -32 5 -18 9 -34 9
-35 0 -1 26 26 58 60 31 34 60 64 65 65 4 2 7 14 7 27 0 12 7 28 15 35 8 7 12
16 9 21 -11 18 7 30 24 17 12 -10 14 -10 8 -1 -4 7 -1 22 7 34 11 15 16 17 20
7 2 -7 4 1 3 19 -1 17 -3 33 -6 36 -3 2 -20 -14 -39 -35z m23 1 c-10 -12 -18
-23 -16 -25 1 -2 -1 -5 -5 -6 -5 0 -13 -8 -20 -17 -7 -9 -13 -13 -13 -9 0 9
60 78 68 78 3 0 -3 -9 -14 -21z"/>
<path d="M2747 2953 c3 -7 9 -10 14 -7 14 8 11 21 -5 21 -8 0 -12 -6 -9 -14z"/>
<path d="M2644 2836 c2 -15 6 -30 10 -34 4 -3 6 5 4 20 -2 15 -7 30 -10 34 -4
3 -5 -6 -4 -20z"/>
<path d="M2666 2842 c-2 -4 -1 -14 5 -22 7 -12 9 -10 9 8 0 23 -5 28 -14 14z"/>
<path d="M1296 3902 c-2 -4 -4 -256 -3 -559 0 -462 2 -551 14 -542 14 12 19
64 5 55 -5 -3 -9 60 -9 140 0 79 2 142 5 139 4 -3 5 -24 3 -47 -2 -25 1 -38 8
-34 6 4 7 -4 0 -26 -12 -44 -12 -141 1 -133 5 3 7 0 5 -8 -3 -7 -2 -24 3 -36
5 -14 8 36 8 132 0 85 -4 153 -8 151 -5 -3 -8 2 -8 11 0 9 -4 14 -8 11 -4 -2
-8 103 -7 235 0 131 1 239 2 239 0 0 6 -14 12 -30 5 -17 6 -28 1 -25 -5 3 -8
-3 -7 -14 0 -11 4 -18 7 -16 5 3 5 -8 -6 -169 -4 -51 -3 -86 2 -83 5 3 9 -15
9 -38 0 -24 -3 -39 -7 -32 -5 7 -8 3 -8 -11 0 -13 4 -21 9 -18 5 4 7 -2 4 -13
-3 -10 -1 -21 4 -24 5 -3 8 164 8 370 0 350 -1 376 -17 379 -10 1 -20 -1 -22
-4z m31 -21 c0 -11 -5 -17 -9 -15 -4 3 -8 -18 -8 -46 0 -28 3 -49 8 -47 4 3 7
-8 7 -23 0 -15 -3 -26 -7 -23 -5 2 -8 -15 -8 -39 0 -27 3 -38 9 -30 5 9 8 2 9
-19 l1 -32 -13 25 c-17 32 -19 224 -3 249 15 24 16 24 14 0z m0 -83 c-3 -8 -6
-5 -6 6 -1 11 2 17 5 13 3 -3 4 -12 1 -19z m0 -110 c-3 -8 -6 -5 -6 6 -1 11 2
17 5 13 3 -3 4 -12 1 -19z m0 -300 c-3 -8 -6 -5 -6 6 -1 11 2 17 5 13 3 -3 4
-12 1 -19z m0 -70 c-3 -8 -6 -5 -6 6 -1 11 2 17 5 13 3 -3 4 -12 1 -19z m0
-240 c-3 -7 -5 -2 -5 12 0 14 2 19 5 13 2 -7 2 -19 0 -25z m0 -130 c-3 -8 -6
-5 -6 6 -1 11 2 17 5 13 3 -3 4 -12 1 -19z"/>
<path d="M3609 3892 c-11 -7 -19 -22 -19 -32 0 -10 -4 -22 -10 -25 -5 -3 -10
-15 -10 -25 0 -18 2 -17 25 4 28 26 34 45 8 25 -15 -11 -16 -11 -6 0 6 7 9 19
7 26 -3 7 2 15 12 19 15 6 15 4 3 -10 -12 -15 -12 -17 1 -12 8 3 14 13 13 23
-2 24 16 4 22 -24 3 -19 2 -21 -10 -11 -12 10 -15 9 -15 -3 0 -29 17 -27 47 6
16 17 33 39 38 47 8 13 7 13 -8 1 -9 -7 -17 -9 -17 -4 0 13 -60 10 -81 -5z
m73 -6 c6 4 5 -2 -1 -15 -15 -27 -16 -27 -17 7 -1 15 1 21 3 14 3 -6 9 -9 15
-6z"/>
<path d="M1738 1975 c-38 -40 -68 -82 -67 -92 1 -13 3 -11 9 7 6 19 7 14 6
-22 0 -25 -5 -44 -10 -40 -5 3 -6 -1 -1 -9 5 -8 -1 -5 -13 5 -24 21 -27 16
-11 -17 10 -22 10 -22 -7 -2 -16 20 -16 19 -12 -7 3 -15 1 -25 -3 -22 -11 6
-30 -31 -21 -41 4 -3 3 -6 -3 -5 -24 5 -34 -1 -29 -17 5 -14 4 -15 -4 -4 -12
16 -27 -3 -16 -21 5 -7 3 -8 -6 -3 -9 6 -11 4 -5 -6 5 -8 -1 -5 -13 5 -12 11
-22 14 -22 8 0 -6 9 -16 20 -22 17 -9 24 -7 40 12 11 13 19 29 20 36 0 7 4 11
8 8 14 -9 101 99 101 125 0 13 1 38 2 54 1 30 1 30 9 5 7 -23 10 -21 14 10 0
5 7 15 14 21 6 7 12 19 12 25 0 7 4 15 9 18 5 4 7 -4 4 -16 -3 -13 -2 -19 3
-15 4 4 10 20 12 35 4 34 12 42 12 13 0 -12 4 -20 9 -17 5 3 7 16 4 29 -4 20
-4 20 9 -3 8 -14 12 -34 9 -44 -4 -20 -4 -20 -12 0 -9 22 -9 20 -14 -21 -2
-16 -1 -22 2 -12 2 9 8 15 13 12 5 -3 14 4 20 15 8 15 7 28 -7 54 l-18 35 -67
-74z m2 -19 c0 -2 -8 -10 -17 -17 -16 -13 -17 -12 -4 4 13 16 21 21 21 13z
m-119 -209 c-10 -9 -11 -8 -5 6 3 10 9 15 12 12 3 -3 0 -11 -7 -18z"/>
<path d="M1775 1950 c-4 -6 -10 -8 -15 -5 -4 3 -13 -2 -20 -10 -7 -8 -9 -15
-5 -15 3 0 -3 -15 -14 -33 -21 -35 -18 -55 6 -36 7 6 13 23 14 38 0 24 1 24
10 6 7 -16 9 -14 6 13 -4 37 0 41 12 10 7 -21 8 -20 13 10 5 34 3 39 -7 22z
m-54 -93 c-10 -9 -11 -8 -5 6 3 10 9 15 12 12 3 -3 0 -11 -7 -18z"/>
<path d="M1601 1832 c-29 -31 -76 -81 -103 -109 -45 -48 -49 -56 -44 -90 l6
-38 -11 33 -10 33 -50 -53 c-78 -81 -79 -83 -80 -114 -1 -29 -1 -29 -8 -4 -4
14 -8 -40 -8 -120 0 -80 3 -134 7 -120 4 14 6 50 5 80 -1 30 0 38 2 17 2 -20
7 -36 11 -33 4 2 7 -9 7 -24 0 -15 -3 -26 -7 -23 -5 2 -8 -10 -8 -27 0 -17 -4
-29 -9 -26 -4 3 -8 -103 -8 -237 -1 -133 -3 -260 -6 -282 -6 -39 -5 -41 22
-40 23 0 27 4 27 27 0 15 -3 25 -8 22 -13 -8 -9 10 5 25 10 11 10 13 0 7 -8
-5 -13 -1 -13 9 0 9 -4 14 -8 11 -5 -3 -8 71 -8 165 1 93 2 169 3 169 0 0 6
-14 12 -30 5 -17 6 -28 1 -25 -5 3 -8 -3 -7 -14 0 -11 4 -18 7 -16 6 4 4 -46
-6 -149 -5 -47 -4 -67 4 -62 6 4 8 -1 5 -13 -3 -10 -1 -21 4 -24 4 -3 8 108 8
246 0 158 3 257 10 266 7 11 7 13 -1 8 -7 -4 -10 17 -8 71 1 42 3 82 4 87 1 6
2 21 1 35 -1 17 -4 21 -9 12 -5 -7 -7 -36 -6 -65 1 -29 0 -45 -3 -37 -3 8 -11
21 -17 29 -8 11 -8 13 2 7 7 -4 12 -1 12 9 0 9 -4 14 -9 11 -11 -7 -9 12 6 39
5 11 8 25 6 32 -2 6 1 14 6 18 7 4 8 0 4 -11 -4 -12 -3 -15 6 -10 7 5 10 15 7
23 -3 8 -2 12 2 9 4 -2 8 4 9 14 1 10 10 27 21 38 20 20 20 20 31 -2 10 -19
11 -18 6 9 -4 24 -3 27 6 15 9 -13 10 -13 5 2 -3 10 0 20 7 24 7 4 9 4 5 -1
-4 -4 -3 -17 3 -28 8 -14 8 -18 0 -13 -14 9 -14 -14 -1 -34 7 -10 10 -11 11
-2 4 33 6 37 16 35 5 -1 23 11 38 27 27 28 28 30 11 49 -16 18 -16 21 -1 48 9
15 14 20 11 10 -12 -38 5 -35 48 8 24 25 46 57 49 72 3 16 13 37 21 48 12 14
14 15 10 4 -3 -10 -1 -20 5 -23 16 -10 20 7 7 31 -11 22 -13 21 -65 -35z m20
5 c-6 -8 -12 -23 -14 -35 -4 -26 -36 -64 -48 -56 -5 3 -9 -2 -9 -10 0 -8 -4
-18 -10 -21 -12 -7 -2 24 15 45 7 8 15 23 18 33 4 10 11 15 17 12 5 -3 10 0
10 7 0 8 5 19 12 26 16 16 23 15 9 -1z m-135 -149 c-19 -27 -21 -50 -3 -26 12
15 14 15 24 -2 10 -15 7 -22 -15 -41 -15 -13 -24 -20 -20 -15 4 4 2 19 -3 33
-7 19 -6 32 6 49 8 13 18 24 21 24 3 0 -2 -10 -10 -22z m-159 -350 c-3 -8 -6
-5 -6 6 -1 11 2 17 5 13 3 -3 4 -12 1 -19z m-1 -144 c0 -32 -3 -48 -7 -37 -5
13 -8 7 -8 -17 0 -22 2 -30 8 -22 5 9 8 2 9 -20 l1 -33 -16 33 c-14 28 -14 40
-3 92 7 33 14 60 15 60 1 0 2 -25 1 -56z m1 -376 c-3 -8 -6 -5 -6 6 -1 11 2
17 5 13 3 -3 4 -12 1 -19z m-12 -98 c-3 -5 -1 -19 6 -31 8 -15 8 -19 0 -15 -6
4 -11 1 -11 -6 0 -8 -4 -6 -11 4 -7 12 -7 24 0 37 6 10 7 22 3 26 -4 5 -1 5 6
1 7 -4 10 -11 7 -16z"/>
<path d="M1573 1774 c-12 -26 -12 -26 7 -9 11 10 17 22 14 26 -7 12 -7 12 -21
-17z"/>
<path d="M1484 1645 c-9 -22 1 -29 15 -11 8 10 9 16 1 21 -5 3 -13 -1 -16 -10z"/>
<path d="M1381 1577 c-6 -8 -14 -25 -16 -37 -2 -12 -8 -27 -13 -34 -5 -6 -6
-20 -2 -31 7 -19 7 -19 14 3 4 12 11 20 16 17 10 -6 30 26 30 47 -1 7 -7 0
-14 -17 -10 -25 -13 -26 -19 -12 -5 12 -3 16 5 11 7 -5 9 0 6 14 -4 12 -1 25
4 29 7 4 8 1 3 -7 -5 -8 -4 -11 3 -6 6 3 15 -2 21 -11 9 -16 10 -16 11 5 0 13
-4 21 -9 17 -6 -3 -14 2 -19 10 -7 14 -10 14 -21 2z"/>
<path d="M363 683 c0 -7 5 -11 11 -10 6 1 10 -3 9 -8 -2 -12 865 -14 884 -2 7
4 9 15 6 25 -6 14 -8 13 -14 -8 -6 -20 -7 -21 -8 -5 -1 20 -8 20 -444 20 -338
0 -444 -3 -444 -12z m44 -15 c-3 -8 -6 -5 -6 6 -1 11 2 17 5 13 3 -3 4 -12 1
-19z m40 7 c0 -6 -6 -12 -12 -12 -6 0 -12 6 -12 12 0 6 6 12 12 12 6 0 12 -6
12 -12z m20 -7 c-3 -8 -6 -5 -6 6 -1 11 2 17 5 13 3 -3 4 -12 1 -19z m40 7 c0
-6 -6 -12 -12 -12 -6 0 -12 6 -12 12 0 6 6 12 12 12 6 0 12 -6 12 -12z m20 -7
c-3 -8 -6 -5 -6 6 -1 11 2 17 5 13 3 -3 4 -12 1 -19z m40 7 c0 -6 -6 -12 -12
-12 -6 0 -12 6 -12 12 0 6 6 12 12 12 6 0 12 -6 12 -12z m20 -7 c-3 -8 -6 -5
-6 6 -1 11 2 17 5 13 3 -3 4 -12 1 -19z m40 7 c0 -6 -6 -12 -12 -12 -6 0 -12
6 -12 12 0 6 6 12 12 12 6 0 12 -6 12 -12z m20 -7 c-3 -8 -6 -5 -6 6 -1 11 2
17 5 13 3 -3 4 -12 1 -19z m40 7 c0 -6 -6 -12 -12 -12 -6 0 -12 6 -12 12 0 6
6 12 12 12 6 0 12 -6 12 -12z m20 -7 c-3 -8 -6 -5 -6 6 -1 11 2 17 5 13 3 -3
4 -12 1 -19z m40 7 c0 -6 -6 -12 -12 -12 -6 0 -12 6 -12 12 0 6 6 12 12 12 6
0 12 -6 12 -12z m20 -7 c-3 -8 -6 -5 -6 6 -1 11 2 17 5 13 3 -3 4 -12 1 -19z
m40 7 c0 -6 -6 -12 -12 -12 -6 0 -12 6 -12 12 0 6 6 12 12 12 6 0 12 -6 12
-12z m20 -7 c-3 -8 -6 -5 -6 6 -1 11 2 17 5 13 3 -3 4 -12 1 -19z m40 7 c0 -6
-6 -12 -12 -12 -6 0 -12 6 -12 12 0 6 6 12 12 12 6 0 12 -6 12 -12z m20 -7
c-3 -8 -6 -5 -6 6 -1 11 2 17 5 13 3 -3 4 -12 1 -19z m40 7 c0 -6 -6 -12 -12
-12 -6 0 -12 6 -12 12 0 6 6 12 12 12 6 0 12 -6 12 -12z m20 -7 c-3 -8 -6 -5
-6 6 -1 11 2 17 5 13 3 -3 4 -12 1 -19z m40 7 c0 -6 -6 -12 -12 -12 -6 0 -12
6 -12 12 0 6 6 12 12 12 6 0 12 -6 12 -12z m20 -7 c-3 -8 -6 -5 -6 6 -1 11 2
17 5 13 3 -3 4 -12 1 -19z m40 7 c0 -6 -6 -12 -12 -12 -6 0 -12 6 -12 12 0 6
6 12 12 12 6 0 12 -6 12 -12z m20 -7 c-3 -8 -6 -5 -6 6 -1 11 2 17 5 13 3 -3
4 -12 1 -19z m40 7 c0 -6 -6 -12 -12 -12 -6 0 -12 6 -12 12 0 6 6 12 12 12 6
0 12 -6 12 -12z m20 -7 c-3 -8 -6 -5 -6 6 -1 11 2 17 5 13 3 -3 4 -12 1 -19z
m40 7 c0 -6 -6 -12 -12 -12 -6 0 -12 6 -12 12 0 6 6 12 12 12 6 0 12 -6 12
-12z m20 -7 c-3 -8 -6 -5 -6 6 -1 11 2 17 5 13 3 -3 4 -12 1 -19z m49 3 c2 -7
0 -7 -3 -1 -3 7 -9 8 -17 1 -9 -8 -13 -7 -13 3 0 17 30 14 33 -3z"/>
<path d="M2575 680 c1 -8 5 -13 10 -12 4 2 12 -2 16 -10 6 -9 9 -6 10 12 l1
25 8 -25 c7 -20 14 -13 12 11 -1 3 5 6 13 6 8 0 14 -3 13 -6 -2 -24 5 -31 12
-11 l8 25 1 -25 c1 -19 3 -22 10 -10 6 8 8 17 6 20 -2 4 2 7 10 7 8 0 14 -3
13 -6 -2 -24 5 -31 12 -11 l8 25 1 -25 c1 -19 3 -22 10 -10 6 8 8 17 6 20 -2
4 2 7 10 7 8 0 14 -3 13 -6 -2 -24 5 -31 12 -11 l8 25 1 -25 c1 -19 3 -22 10
-10 6 8 8 17 6 20 -2 4 2 7 10 7 8 0 14 -3 13 -6 -2 -24 5 -31 12 -11 l8 25 1
-25 c1 -19 3 -22 10 -10 6 8 8 17 6 20 -2 4 2 7 10 7 8 0 14 -3 13 -6 -2 -24
5 -31 12 -11 l8 25 1 -25 c1 -19 3 -22 10 -10 6 8 8 17 6 20 -2 4 2 7 10 7 8
0 14 -3 13 -6 -2 -24 5 -31 12 -11 l8 25 1 -25 c1 -19 3 -22 10 -10 6 8 8 17
6 20 -2 4 2 7 10 7 8 0 14 -3 13 -6 -2 -24 5 -31 12 -11 l8 25 1 -25 c1 -19 3
-22 10 -10 6 8 8 17 6 20 -2 4 2 7 10 7 8 0 12 -3 10 -7 -2 -3 0 -12 6 -20 7
-12 9 -9 10 10 l1 25 8 -25 c7 -20 14 -13 12 11 -1 3 5 6 13 6 8 0 14 -3 13
-6 -2 -24 5 -31 12 -11 l8 25 1 -25 c1 -19 3 -22 10 -10 6 8 8 17 6 20 -2 4 2
7 10 7 8 0 14 -3 13 -6 -2 -24 5 -31 12 -11 l8 25 1 -25 c1 -19 3 -22 10 -10
6 8 8 17 6 20 -2 4 2 7 10 7 8 0 14 -3 13 -6 -2 -24 5 -31 12 -11 l8 25 1 -25
c1 -19 3 -22 10 -10 6 8 8 17 6 20 -2 4 2 7 10 7 8 0 14 -3 13 -6 -2 -24 5
-31 12 -11 l8 25 1 -25 c1 -19 3 -22 10 -10 6 8 8 17 6 20 -2 4 2 7 10 7 8 0
14 -3 13 -6 -2 -24 5 -31 12 -11 l8 25 1 -25 c1 -19 3 -22 10 -10 6 8 8 17 6
20 -2 4 2 7 10 7 8 0 14 -3 13 -6 -2 -24 5 -31 12 -11 l8 25 1 -25 c1 -19 3
-22 10 -10 6 8 8 17 6 20 -2 4 2 7 10 7 8 0 14 -3 13 -6 -2 -24 5 -31 12 -11
l8 25 1 -25 c1 -19 3 -22 10 -10 6 8 8 17 6 20 -2 4 2 7 10 7 8 0 14 -3 13 -6
-2 -24 5 -31 12 -11 l8 25 1 -25 c1 -19 3 -22 10 -10 6 8 8 17 6 20 -2 4 2 7
10 7 8 0 14 -3 13 -6 -2 -24 5 -31 12 -11 l8 25 1 -25 c1 -19 3 -22 10 -10 6
8 8 17 6 20 -2 4 2 7 10 7 8 0 12 -3 10 -7 -2 -3 0 -12 6 -20 7 -12 9 -9 10
10 l1 25 8 -25 c4 -14 8 -20 9 -13 1 6 3 17 6 25 4 11 -94 13 -569 13 -504 0
-573 -2 -571 -15z"/>
<path d="M3727 687 c-3 -7 -2 -19 3 -26 5 -10 8 -9 13 2 3 7 2 19 -3 26 -5 10
-8 9 -13 -2z"/>
<path d="M3753 681 c4 -29 17 -39 17 -13 0 11 -5 24 -10 27 -6 4 -9 -2 -7 -14z"/>
<path d="M3780 676 c0 -8 4 -17 9 -20 5 -4 7 3 4 14 -6 23 -13 26 -13 6z"/>
<path d="M290 380 c0 -198 -5 -182 60 -182 60 0 60 0 60 45 0 35 6 49 29 71
l30 28 35 -71 c23 -45 43 -71 54 -72 135 -7 132 -12 56 111 -35 57 -64 108
-64 112 0 4 28 37 61 73 l61 65 -73 0 -74 0 -57 -62 -57 -63 -1 63 0 62 -60 0
-60 0 0 -180z"/>
<path d="M710 380 c0 -193 -3 -182 50 -182 51 0 50 -2 50 76 0 94 5 106 41
106 l29 0 0 -90 c0 -99 -5 -92 70 -92 11 0 25 0 30 1 18 2 12 182 -8 221 -22
46 -73 61 -122 36 -18 -9 -35 -16 -37 -16 -1 0 -3 27 -3 60 l0 60 -50 0 -50 0
0 -180z"/>
<path d="M1708 423 l-3 -138 -25 0 c-18 0 -26 6 -28 23 -3 18 -10 22 -42 22
-73 0 -87 -22 -53 -81 35 -59 145 -79 211 -39 51 31 62 70 62 220 l0 130 -60
0 -59 0 -3 -137z"/>
<path d="M1113 460 c-34 -11 -79 -59 -66 -71 13 -12 94 -14 101 -3 12 18 50
23 68 9 17 -12 16 -13 -2 -22 -10 -6 -43 -16 -72 -22 -70 -15 -88 -25 -100
-58 -19 -56 23 -103 93 -103 22 1 51 7 65 15 16 8 29 10 36 4 10 -8 60 -14 89
-10 11 1 3 194 -9 221 -3 9 -16 22 -28 29 -28 17 -133 24 -175 11z m111 -162
c-11 -37 -25 -49 -53 -46 -40 5 -34 38 9 54 49 18 52 17 44 -8z"/>
<path d="M1953 451 c-50 -23 -76 -68 -75 -130 1 -76 63 -131 149 -131 86 0
143 50 150 129 5 51 -18 98 -60 126 -40 26 -116 29 -164 6z m115 -90 c17 -48
-3 -101 -39 -101 -27 0 -49 28 -49 61 0 46 17 69 49 69 23 0 31 -6 39 -29z"/>
<path d="M2686 449 c-21 -17 -26 -18 -26 -5 0 12 -11 16 -45 16 l-45 0 0 -130
c0 -142 -5 -132 60 -132 11 0 25 0 30 1 6 1 11 27 11 59 2 97 10 117 45 120
44 4 74 72 38 86 -26 10 -40 7 -68 -15z"/>
<path d="M2974 460 c-12 -5 -25 -13 -29 -19 -9 -16 -25 -13 -25 4 0 11 -12 15
-45 15 l-45 0 0 -130 c0 -142 -5 -132 60 -132 11 0 25 0 30 1 6 1 10 33 10 75
0 94 5 106 41 106 l29 0 0 -90 c0 -98 -3 -92 60 -92 51 0 50 -3 50 92 0 105
-16 155 -55 170 -31 12 -52 12 -81 0z"/>
<path d="M3244 460 c-93 -29 -118 -160 -45 -234 26 -26 39 -31 94 -34 47 -3
74 1 101 13 32 15 64 51 54 60 -10 10 -89 7 -116 -4 -29 -12 -35 -12 -52 4
-11 10 -20 22 -20 27 0 4 45 8 100 8 l100 0 0 31 c0 45 -28 98 -62 115 -37 19
-114 26 -154 14z m104 -87 c3 -21 -1 -23 -42 -23 -50 0 -51 1 -35 31 15 29 73
23 77 -8z"/>
<path d="M2230 350 c0 -107 1 -112 26 -135 34 -32 91 -33 128 -4 21 17 26 18
26 5 0 -15 8 -18 50 -18 52 0 50 -6 50 132 l0 130 -55 0 -55 0 0 -84 c0 -64
-4 -87 -16 -97 -11 -9 -20 -10 -32 -2 -13 8 -18 29 -20 97 l-3 86 -49 0 -50 0
0 -110z"/>
<path d="M3480 456 c0 -3 24 -62 54 -131 30 -69 52 -133 49 -141 -6 -16 -41
-27 -69 -22 -11 2 -19 -3 -18 -9 1 -7 2 -24 3 -38 1 -24 4 -25 62 -25 86 0
102 19 168 200 30 80 56 151 58 158 4 8 -9 12 -46 12 l-51 0 -22 -75 c-12 -41
-25 -75 -29 -75 -3 0 -16 34 -28 75 l-23 75 -54 0 c-30 0 -54 -2 -54 -4z"/>
</g>
</svg>
